<svg width="347" height="939" viewBox="0 0 347 939" fill="none" xmlns="http://www.w3.org/2000/svg">
<path d="M198.079 937.091L196.075 937.479C191.043 938.455 185.797 937.412 181.505 934.609C178.399 932.58 175.842 929.774 174.123 926.486L171.253 921L210.197 908L211.035 909.679C213.657 914.93 213.711 921.096 211.182 926.392L211.037 926.695C210.149 928.555 208.988 930.27 207.591 931.786C205.068 934.523 201.735 936.382 198.079 937.091Z" fill="#7E655C"/>
<path d="M280.498 893.577L282.093 878L244.148 884V890.233C244.148 895.419 246.661 900.283 250.891 903.283L252.303 904.285C254.813 906.065 257.737 907.172 260.797 907.501L261.518 907.578C266.918 908.157 272.269 906.122 275.919 902.102L277.446 900.42C279.167 898.523 280.237 896.125 280.498 893.577Z" fill="#7E655C"/>
<path d="M168.757 905.5V881.5L202.209 885.5L211.229 909.16C212.191 911.683 212.534 914.4 212.227 917.084L212.043 918.701C211.22 925.909 206.326 932.001 199.465 934.356C195.445 935.737 191.057 935.585 187.142 933.929L182.349 931.903C175.179 928.871 170.182 922.23 169.256 914.5L168.757 905.5Z" fill="#544E56"/>
<path d="M247.643 870.5L256.131 848L282.593 850V854.5V886.572C282.593 889.48 281.882 892.344 280.523 894.915C276.443 902.632 267.687 906.645 259.178 904.697L256.131 904C247.409 901.182 242.344 892.105 244.528 883.203L247.643 870.5Z" fill="#544E56"/>
<path d="M161.19 579.461L149.784 546.5L209.698 542.5L210.128 612.314C210.174 619.738 209.224 627.134 207.302 634.305L204.705 644L195.718 710L189.609 805.532C189.355 809.504 189.44 813.489 189.864 817.446L194.413 859.968C194.948 864.967 196.153 869.87 197.996 874.547L201.876 884.389C202.427 885.788 202.762 887.263 202.869 888.763L203.079 891.702C203.457 897.005 200.537 901.994 195.728 904.26C195.389 904.42 195.038 904.552 194.678 904.657L192.842 905.189C183.472 907.905 173.587 902.963 170.139 893.836C169.553 892.285 169.162 890.667 168.975 889.019L163.764 843V819.124C163.764 814.048 163.389 808.98 162.642 803.959L153.287 741.116C152.285 734.384 151.843 727.58 151.967 720.774L152.538 689.307C152.699 680.468 153.924 671.68 156.188 663.134L162.822 638.096C164.776 630.719 165.953 623.158 166.334 615.536C166.945 603.293 165.199 591.046 161.19 579.461Z" fill="white"/>
<path d="M226.673 623.5L220.682 542L283.092 539.5L273.983 598.445C271.432 614.95 272.507 631.813 277.133 647.86L281.414 662.714C283.195 668.894 284.464 675.211 285.207 681.599L288.824 712.686C289.661 719.881 289.85 727.136 289.39 734.365L287.086 770.5L284.091 822L282.094 859L281.14 866.959C280.786 869.913 279.521 872.684 277.522 874.886C276.26 876.276 274.689 877.349 272.936 878.017L267.837 879.963C266.051 880.644 264.127 880.882 262.229 880.656L260.154 880.408C252.558 879.503 248.346 871.144 252.137 864.5L257.667 840.132C258.969 834.395 259.626 828.531 259.626 822.648V790.783C259.626 782.621 258.701 774.485 256.868 766.531L244.647 713.5L226.673 623.5Z" fill="white"/>
<path d="M149.784 548L137.801 509L208.699 524.5L209.698 544L184.536 550.082C182.009 550.693 179.437 551.1 176.845 551.3C170.82 551.764 164.76 551.333 158.862 550.02L149.784 548Z" fill="#FCE5D8"/>
<path d="M220.682 544L220.183 523.5L240.653 532L288.584 511L282.593 542L261.653 548.291C255.698 550.08 249.453 550.701 243.262 550.12C238.875 549.708 234.554 548.775 230.388 547.341L220.682 544Z" fill="#FCE5D8"/>
<path d="M138.301 511L134.306 497.5L208.699 512.5V530C202.052 533.487 194.203 533.86 187.255 531.019L138.301 511Z" fill="#FACDC3"/>
<path d="M220.183 525.995V513.5L288.584 500V511L248.074 530.26C242.328 532.991 235.781 533.522 229.671 531.751L223.069 529.837C221.359 529.341 220.183 527.775 220.183 525.995Z" fill="#FACDC3"/>
<path d="M113.836 426.5L146.289 387L332.022 446L342.506 463L316.045 496L287.586 505L258.627 510.5V516.5L172.751 514V510.555C172.751 509.64 172.131 508.842 171.245 508.616L113.836 494L117.331 482L110.88 479.291C104.885 476.773 99.2239 473.525 94.025 469.62L89.8705 466.5L113.836 426.5Z" fill="#FAA9AF"/>
<path d="M167.491 342.654L169.755 336.5L260.125 340L263.785 346.23C264.611 347.636 266.12 348.5 267.751 348.5C268.915 348.5 270.003 349.077 270.657 350.039L275.584 357.296C277.129 359.571 277.273 362.517 275.958 364.932C275.512 365.749 275.914 366.771 276.798 367.065L277.822 367.407C278.972 367.791 279.962 368.548 280.634 369.558L283.355 373.645C284.176 374.878 284.855 376.199 285.381 377.584L292.107 395.311C293.395 398.706 293.733 402.388 293.085 405.961C292.451 409.453 293.478 413.041 295.863 415.668L297.072 417L299.145 439.836C299.425 442.921 299.152 446.03 298.338 449.019L296.017 457.54C295.422 459.726 293.861 461.521 291.779 462.414L290.413 463.001C288.92 463.642 287.736 464.839 287.112 466.339L286.742 467.227C286.044 468.905 286.426 470.839 287.711 472.125C288.821 473.237 289.067 474.947 288.316 476.327L284.83 482.726C284.014 484.224 282.882 485.527 281.511 486.543L273.313 492.624C271.735 493.795 269.472 493.082 268.851 491.216C268.491 490.135 267.17 489.735 266.271 490.435L265.393 491.119C264.505 491.811 264.527 493.16 265.437 493.823C267.269 495.158 267.298 497.881 265.494 499.254L260.302 503.206C257.878 505.05 255.112 506.394 252.164 507.16L248.359 508.148C244.919 509.041 241.338 509.253 237.817 508.772L232.165 508C230.532 508 228.929 508.444 227.529 509.286L226.38 509.976C223.656 511.613 220.469 512.304 217.312 511.943L208.34 510.916C205.965 510.644 203.715 509.707 201.849 508.212L200.217 506.904C198.419 505.464 195.908 505.318 193.956 506.54C193.481 506.838 192.918 506.966 192.36 506.904L181.295 505.673C180.266 505.558 179.263 505.274 178.328 504.832L172.714 502.177C166.962 499.457 164.995 492.245 168.569 486.982C168.947 486.426 168.292 485.751 167.725 486.112L165.628 487.449C165.066 487.807 164.636 488.337 164.403 488.961C163.801 490.569 161.918 491.278 160.405 490.466L152.886 486.432C150.523 485.164 148.518 483.322 147.054 481.075L143.216 475.181C142.351 473.853 142.341 472.141 143.192 470.803C144.462 468.804 144.4 466.237 143.036 464.301L141.86 462.633C140.194 460.269 139.299 457.447 139.299 454.555V448.569C139.299 446.935 139.998 445.378 141.218 444.292C142.69 442.981 142.96 440.781 141.848 439.154L139.919 436.33C138.214 433.835 137.302 430.883 137.302 427.861V425.228C137.302 422.223 138.598 419.364 140.858 417.384L142.323 416.1C143.93 414.692 144.012 412.22 142.502 410.708C141.078 409.281 140.198 407.401 140.016 405.393L139.75 402.466C139.462 399.291 140.469 396.134 142.542 393.711C144.316 391.639 145.291 389.001 145.291 386.273V380.366C145.291 375.439 147.706 370.825 151.755 368.018L155.882 365.157C157.181 364.257 157.457 362.451 156.488 361.203C155.496 359.925 155.553 358.122 156.624 356.909L163.9 348.672C165.46 346.906 166.678 344.865 167.491 342.654Z" fill="white"/>
<path d="M251.138 485L246.971 480.27C244.811 477.819 243.474 474.751 243.15 471.5V471.5" stroke="black" stroke-width="0.3"/>
<path d="M243.15 488.5V488.5C237.733 483.394 234.662 476.28 234.662 468.836V464" stroke="black" stroke-width="0.3"/>
<path d="M266.616 489.5L259.127 480L256.131 482.5L264.119 492.5C264.783 491.502 265.544 490.573 266.391 489.725L266.616 489.5Z" fill="#BECAD8"/>
<path d="M230.668 493L224.676 493.5V497.841C224.676 500.204 225.513 502.49 227.038 504.295L230.168 508C231.155 507.671 232.202 507.56 233.236 507.675L236.16 508L230.668 493Z" fill="#BECAD8"/>
<path d="M174.748 480L168.757 475L165.262 487.5L167.136 485.964C167.97 485.281 169.146 486.22 168.665 487.184L168.258 488L174.748 480Z" fill="#BECAD8"/>
<path d="M179.242 404V412.5L186.123 423.124C189.516 428.362 193.416 433.253 197.769 437.726L210.197 450.5L194.139 429.471C191.866 426.495 189.823 423.35 188.026 420.064L179.242 404Z" fill="#BECAD8"/>
<path d="M189.764 387.282L181.738 382L183.97 386.191C185.14 388.387 186.601 390.414 188.316 392.216C193.162 397.313 199.283 401.02 206.045 402.955L209.698 404H218.382C221.901 404 225.408 403.594 228.834 402.792L230.213 402.468C240.734 400.002 249.223 392.254 252.636 382L236.659 391L225.496 395.626C223.307 396.533 220.96 397 218.59 397C216.993 397 215.4 396.838 213.836 396.515L210.291 395.784C202.972 394.275 196.007 391.39 189.764 387.282Z" fill="#BECAD8"/>
<path d="M204.233 369.029L206.702 370L184.235 351L183.735 356C189.671 361.614 196.63 366.037 204.233 369.029Z" fill="#BECAD8"/>
<path d="M229.142 369.029L226.673 370L249.141 351L249.64 356C243.704 361.614 236.745 366.037 229.142 369.029Z" fill="#BECAD8"/>
<path d="M289.083 424L299.568 415.5L320.538 408.5L328.527 410.5L320.538 415.5L302.065 423L289.083 424Z" fill="#BECAD8"/>
<path d="M272.607 320L266.616 295L296.573 288L299.223 313.403C299.784 318.786 300.919 324.093 302.608 329.234L308.977 348.623C311.354 355.86 313.091 363.292 314.166 370.834L320.538 415.5L301.565 423L280.096 357L272.607 320Z" fill="#FCE5D8"/>
<path d="M142.295 342L167.758 295.5L138.301 283.5L135.199 292.043C130.659 304.544 123.569 315.964 114.378 325.578C108.749 331.465 104.375 338.433 101.519 346.06L89.3712 378.5L105.847 391L120.526 374.9C124.709 370.312 128.418 365.312 131.594 359.976L142.295 342Z" fill="#FCE5D8"/>
<path d="M109.965 386.362L105.97 390.862L95.9847 383.362L109.965 386.362Z" fill="#FACDC3"/>
<path d="M99.9862 382.482L100.255 382.688C105.201 386.475 108.896 391.66 110.864 397.57L111.839 400.5L88.871 418.983C85.5602 421.647 82.6481 424.772 80.2236 428.262C77.3726 432.367 73.6228 435.767 69.2598 438.203L52.3977 447.621C50.768 448.531 49.338 449.76 48.1929 451.234L47.0481 452.708C45.0711 455.254 41.8338 456.35 38.8023 455.664L38.5166 459.526C38.4712 460.141 38.145 460.7 37.6326 461.042L35.5637 462.423C34.2347 463.311 32.4532 462.358 32.4532 460.76V447L22.8018 463.569C22.2963 464.437 21.3217 464.919 20.3253 464.794C18.982 464.626 17.9741 463.484 17.9741 462.13V459L29.9568 440L9.81035 462.144C9.59812 462.377 9.32795 462.55 9.02726 462.645C6.15328 463.554 3.78326 460.272 5.5503 457.83L21.0358 436.429C23.6076 432.875 27.0846 430.074 31.1053 428.319L55.1709 417.814C60.798 415.358 65.3243 410.916 67.8871 405.337L73.5089 393.098C74.7623 390.37 75.819 387.555 76.6709 384.675L79.3856 375.5C86.8332 375.5 94.0733 377.954 99.9862 382.482Z" fill="white"/>
<path d="M280.151 294.051L264.119 297L268.613 265L294.576 262L301.521 282.048C302.387 284.548 301.155 287.291 298.71 288.304L296.506 289.217C291.239 291.4 285.757 293.02 280.151 294.051Z" fill="white"/>
<path d="M131.96 273.857L142.794 258L167.758 274.5L168.757 296L153.964 291.72C148.891 290.253 144.132 287.863 139.924 284.671L132.845 279.3C131.147 278.012 130.757 275.618 131.96 273.857Z" fill="white"/>
<path d="M189.966 188.6L191.724 187L198.714 217L209.199 193L223.678 194.5L235.161 217L246.145 190L266.116 197L266.376 197.089C278.883 201.366 288.158 211.989 290.709 224.958L291.616 229.57C292.58 234.468 294.568 239.107 297.45 243.182L299.87 246.604C300.989 248.185 301.782 249.974 302.201 251.865C303.045 255.668 301.821 259.635 298.981 262.301L298.637 262.624C296.642 264.497 294.126 265.723 291.421 266.14L276.102 268.5C271.141 270.674 267.672 275.276 266.947 280.643L265.617 290.5L262.705 308C261.666 314.244 262.123 320.646 264.04 326.679L264.619 328.5C265.264 332.053 264.636 335.719 262.847 338.855L262.285 339.841C260.641 342.722 257.578 344.5 254.261 344.5H196.866C193.783 344.5 190.714 344.104 187.732 343.322L172.175 339.242C171.567 339.082 170.996 338.802 170.498 338.418C167.239 335.908 166.407 331.34 168.569 327.842L169.076 327.022C170.479 324.752 171.007 322.049 170.561 319.417L166.76 297L165.107 279.622C164.891 277.352 163.583 275.329 161.6 274.201L148.068 266.501C144.593 264.523 141.584 261.821 139.245 258.578L137.584 256.276C136.738 255.103 136.124 253.779 135.773 252.376C134.557 247.504 136.037 242.353 139.655 238.869L141.895 236.712C145.08 233.645 147.242 229.672 148.088 225.332L150.783 211.5L151.03 210.757C153.653 202.876 160.322 197.022 168.476 195.441L181.274 192.961C184.516 192.332 187.524 190.824 189.966 188.6Z" fill="#FAA9AF"/>
<path d="M264.828 227.258L264.119 228.5V229L264.619 230.5L267.614 227L269.495 224.41C270.897 222.48 272.015 220.359 272.817 218.113L274.048 214.66C274.086 214.554 274.105 214.443 274.105 214.33V210.917C274.105 209.894 272.778 209.493 272.211 210.345C272.143 210.447 272.099 210.563 272.083 210.685L271.459 215.372C271.228 217.108 270.663 218.782 269.795 220.303C269.341 221.099 268.812 221.851 268.216 222.547L267.807 223.025C266.683 224.339 265.685 225.756 264.828 227.258Z" fill="#FF9CA4"/>
<path d="M266.616 278.5V255.5V240.606C266.616 236.581 265.766 232.601 264.121 228.927L261.743 223.615C260.694 221.272 258.896 219.344 256.631 218.134V218.134C254.063 216.762 252.105 214.472 251.15 211.721L248.642 204.5" stroke="black" stroke-width="0.2"/>
<path d="M218.685 194.5H215.768C215.096 194.5 214.468 194.838 214.098 195.4L199.213 218L195.551 212.866C194.671 211.631 194.013 210.253 193.608 208.792L192.743 205.675C192.067 203.239 191.765 200.715 191.847 198.188L192.223 186.5L202.708 174L203.706 182L218.685 194.5L232.165 182.5L233.164 172L246.645 189.5L243.15 204.5L241.627 208.312C240.649 210.762 239.38 213.086 237.848 215.233L235.161 219L222.743 195.564C222.397 194.909 221.717 194.5 220.976 194.5H218.685Z" fill="white"/>
<path d="M202.209 180.974V171L218.685 176L233.663 170.5L233.201 181.611C233.177 182.177 232.915 182.706 232.479 183.068L218.685 194.5L203.442 183.399C202.667 182.834 202.209 181.933 202.209 180.974Z" fill="#FACDC3"/>
<path d="M234.163 170.5L222.517 177.336C220.722 178.39 218.551 178.59 216.593 177.882L201.709 172.5L194.455 169.54C190.35 167.866 186.645 165.345 183.58 162.142L183.099 161.64C178.9 157.252 175.56 152.117 173.25 146.5L171.763 145.984C165.125 143.683 161.113 136.931 162.266 130L164.263 120L165.262 103.5L170.255 89L173.25 102L185.233 99L187.729 67.5L190.725 99.5L201.709 99L205.204 56.5L207.701 99H208.699L209.698 71.5L213.193 99.5H229.17L231.167 53L239.155 99.5H243.15L242.151 70L249.141 99.5L257.629 101.5L256.131 56L269.117 117.172C269.445 118.716 269.987 120.208 270.727 121.602C274.953 129.568 272.655 139.431 265.344 144.709L256.63 151C251.767 159.442 244.315 166.094 235.378 169.973L234.163 170.5Z" fill="#FCE5D8"/>
<path d="M140.797 112.5V75.6063C140.797 73.6103 143.38 72.8186 144.499 74.472C146.696 77.7205 151.762 76.3291 151.992 72.414L152.251 68.0012C152.271 67.6677 152.32 67.3367 152.399 67.012L154.73 57.382C155.759 53.1327 157.089 48.9622 158.71 44.9021L160.269 41L167.259 33L170.701 29.9466C179.882 21.8032 191.11 16.3175 203.176 14.0798C217.46 11.4308 232.217 13.4619 245.255 19.8712L252.636 23.5C266.633 32.42 276.239 46.81 279.109 63.1577L282.593 83L289.083 73V109.792C289.083 117.536 290.452 125.22 293.126 132.488L294.543 136.341C295.553 139.087 296.011 142.005 295.889 144.928C295.685 149.841 293.879 154.552 290.746 158.342L286.077 163.992C284.455 165.955 282.298 167.405 279.868 168.165C277.19 169.003 274.273 168.501 272.03 166.816L270.89 165.96C268.764 164.363 266.177 163.5 263.517 163.5C258.824 163.5 254.359 165.528 251.271 169.062L249.447 171.15C247.183 173.74 243.504 174.567 240.35 173.194L234.163 170.5L237.66 168.614C243.906 165.246 249.335 160.546 253.563 154.846L255.547 152.171C258.579 148.084 262.255 144.517 266.43 141.608C269.617 139.388 271.317 135.59 270.85 131.734L269.612 121.5L255.632 54.5L257.629 102L248.642 99.5L242.151 69L243.15 99.5H239.155L231.167 52.5L229.17 99.5H213.193L209.698 71L208.699 99.5H207.701L205.204 56L201.709 99.5H190.725L187.729 66.5L185.233 99.5L173.25 102.5L170.255 89L167.466 96.8694C165.675 101.926 164.682 107.23 164.525 112.592L164.393 117.074C164.307 120.014 163.876 122.935 163.109 125.775L162.663 127.431C160.716 134.643 164.369 142.188 171.234 145.134C172.542 145.696 173.628 146.672 174.325 147.913L174.939 149.006C179.703 157.487 186.819 164.409 195.428 168.935L202.209 172.5L200.89 173.401C195.737 176.919 188.671 175.169 185.755 169.653C183.603 165.582 179.318 163.094 174.715 163.243L173.77 163.274C169.204 163.421 164.792 164.952 161.116 167.664L160.556 168.078C158.706 169.443 156.116 169.148 154.621 167.401L151.282 163.5L143.793 153.5L144.756 156.779C145.76 160.198 147.686 163.311 150.283 165.75L152.281 167.625L153.279 168.562L153.381 168.658C153.552 168.819 153.368 169.095 153.154 169L152.031 168.5L149.784 167.5L147.041 166.279C145.88 165.762 144.798 165.084 143.826 164.265C138.827 160.049 136.315 153.579 137.16 147.094L138.8 134.5L139.957 127.84C140.516 124.619 140.797 121.356 140.797 118.087V112.5Z" fill="#503C4D"/>
<path d="M203.706 222.5L205.204 303.5" stroke="black" stroke-width="0.5"/>
<path d="M231.666 221.5V269" stroke="black" stroke-width="0.5"/>
<path d="M140.298 74L123.322 87L133.807 58.5C142.224 32.277 163.244 12.0313 189.764 4.604L197.447 2.4522C203.248 0.827527 209.269 0.126176 215.288 0.373896L222.023 0.651082C235.568 1.20853 248.771 5.07532 260.476 11.9135L261.073 12.2621C276.4 21.2158 288.7 34.5481 296.391 50.5458L297.571 53L308.555 81L290.082 71.5L282.593 84.5L279.562 65.9833C278.267 58.0764 275.385 50.5137 271.087 43.7514C263.984 32.5729 253.344 24.0932 240.863 19.663L234.413 17.3737C225.379 14.1672 215.731 13.0721 206.208 14.1725L204.631 14.3547C189.915 16.0551 176.386 23.2536 166.753 34.5077C160.858 41.395 156.764 49.6367 154.836 58.4948L153.529 64.5L151.282 84.5L140.298 74Z" fill="white"/>
<ellipse cx="172.751" cy="179" rx="16.9755" ry="17" fill="#B8E2F2"/>
<path d="M280.732 179.963C280.732 189.351 273.131 196.963 263.756 196.963C254.381 196.963 246.781 189.351 246.781 179.963C246.781 170.574 254.381 162.963 263.756 162.963C273.131 162.963 280.732 170.574 280.732 179.963Z" fill="#B8E2F2"/>
<ellipse cx="217.187" cy="207.5" rx="3.49496" ry="3.5" fill="#503C4D"/>
<ellipse cx="217.187" cy="236.5" rx="3.49496" ry="3.5" fill="#503C4D"/>
<ellipse cx="218.186" cy="273.5" rx="3.49496" ry="3.5" fill="#503C4D"/>
<ellipse cx="219.184" cy="308.5" rx="3.49496" ry="3.5" fill="#503C4D"/>
<path d="M135.809 268.36L137.33 269.783C144.924 276.888 153.539 282.812 162.887 287.359L166.26 289L166.76 292L156.056 286.181C151.552 283.732 147.283 280.871 143.306 277.634L134.429 270.409L135.809 268.36Z" fill="black"/>
<ellipse cx="220.183" cy="337.5" rx="3.49496" ry="3.5" fill="#503C4D"/>
<path d="M166.644 295.466L167.143 296.466L161.152 307.249V307.249C151.374 301.7 143.393 293.429 138.185 283.466V283.466L146.317 288.352C149.203 290.086 152.317 291.407 155.57 292.275L158.156 292.966L166.644 295.466Z" fill="#FACDC3"/>
<path d="M266.043 290.525L283.092 285L300.338 278.639L300.988 280.53L284.59 286.5L265.617 292.5L266.043 290.525Z" fill="black"/>
<path d="M263.62 323V323C263.952 324.997 264.44 326.965 265.08 328.886L265.118 329L200.711 333L263.62 323Z" fill="#FF9CA4"/>
<path d="M264.619 196.5L256.63 193.5L249.64 226L245.646 281.5L249.141 346L255.132 403.5V481.5C261.658 474.311 266.037 465.436 267.772 455.883L267.883 455.271C269.363 447.119 269.865 438.82 269.379 430.55L267.614 400.5L271.654 414.526C273.938 422.453 274.88 430.706 274.441 438.944L273.106 464L276.243 442.324C277.472 433.834 277.273 425.199 275.656 416.775L273.106 403.5L261.623 357L256.15 309.355C255.472 303.459 255.216 297.523 255.382 291.59L256.63 247L264.619 196.5Z" fill="#503C4D"/>
<path d="M205.204 321V339" stroke="black" stroke-width="0.5"/>
<path d="M164.263 276C161.06 272.35 152.511 268.65 146.02 264.917C139.144 260.006 136.986 255.421 140.029 251.15C141.526 251.15 146.02 247.65 154.508 255.15C161.383 260.061 165.262 268 164.263 276Z" fill="#FF9CA4"/>
<path d="M164.763 278L164.145 262.855C163.892 256.649 164.514 250.439 165.991 244.406L168.132 235.667C169.522 229.991 172.396 224.787 176.459 220.587L182.951 213.875C184.735 212.031 185.732 209.566 185.732 207V207" stroke="black" stroke-width="0.2"/>
<path d="M193.222 185.31L194.719 183.5L194.72 188.47C194.72 190.816 194.985 193.154 195.512 195.439L196.217 198.5L197.596 202.366C198.337 204.443 199.386 206.398 200.708 208.163L203.207 211.5L201.71 214L199.975 211.491C198.145 208.844 196.7 205.949 195.683 202.895L194.72 200L193.92 195.994C193.456 193.67 193.222 191.306 193.222 188.936L193.222 185.31Z" fill="black"/>
<path d="M243.897 186L245.395 188L244.763 191.49C244.22 194.49 243.387 197.429 242.275 200.267V200.267C241.693 201.753 240.997 203.193 240.193 204.572L237.906 208.5L233.412 215.5L232.413 213.5L236.158 207.5L237.777 204.906C239.19 202.642 240.355 200.232 241.252 197.718V197.718C242.015 195.576 242.597 193.374 242.992 191.135L243.897 186Z" fill="black"/>
<path d="M202.209 181.007V174.5L199.213 178L199.087 180.516C198.854 185.196 200.959 189.686 204.705 192.5L212.194 198L212.273 197.89C213.051 196.798 213.918 195.773 214.866 194.825C215.073 194.617 215.355 194.5 215.649 194.5H218.685L203 182.6C202.501 182.222 202.209 181.633 202.209 181.007Z" fill="#E8E7E7"/>
<path d="M239.155 180L233.663 172.5L233.208 181.621C233.18 182.181 232.918 182.704 232.487 183.061L218.685 194.5H220.609C221.279 194.5 221.903 194.835 222.274 195.392L224.676 199L229.669 194L234.157 188.907C236.14 186.656 237.684 184.052 238.708 181.232L239.155 180Z" fill="#E8E7E7"/>
<path d="M164.763 276L162.638 271.318C160.772 267.208 157.676 263.777 153.778 261.5V261.5L150.413 259.167C148.335 257.726 146.117 256.497 143.793 255.5V255.5" stroke="black" stroke-width="0.2"/>
<path d="M170.255 229.5V229.5C164.522 226.948 160.104 222.133 158.054 216.203L156.774 212.5" stroke="black" stroke-width="0.3"/>
<path d="M171.253 227L170.255 229L169.798 228.735C163.988 225.366 159.641 219.953 157.608 213.553L157.273 212.5L157.835 213.472C161.067 219.062 165.689 223.722 171.253 227Z" fill="#FF9CA4"/>
<path d="M299.568 258.5C299.568 265.68 293.078 266.5 284.091 266.5C275.603 268 270.111 269 267.115 277.5C267.614 268.5 274.105 256 282.593 253C291.068 250.005 295.075 253.5 299.568 258.5Z" fill="#FF9CA4"/>
<path d="M266.616 278.5L268.304 271.949C269.744 266.359 273.885 261.859 279.337 259.96V259.96C281.162 259.325 283.08 259 285.013 259H289.083" stroke="black" stroke-width="0.2"/>
<path d="M264.619 230.5L268.114 226L268.452 225.661C272.072 222.036 274.105 217.123 274.105 212V212V209.5" stroke="black" stroke-width="0.3"/>
<path d="M267.115 296.5L296.573 289.5L297.571 298.5L270.61 311.5L267.115 296.5Z" fill="#FACDC3"/>
<path d="M320.538 415.5L298.57 413L302.065 423L320.538 415.5Z" fill="#FACDC3"/>
<path d="M76.9868 389H75.3914L74.3928 391H77.9948C81.8189 391 85.5445 392.213 88.6357 394.464C89.1253 394.821 89.5862 395.215 90.0142 395.644L94.364 400L95.8691 401.675C97.8524 403.882 99.5293 406.345 100.855 409L102.852 407.5L98.8576 402.5L95.745 398.69C94.8258 397.565 93.8189 396.515 92.7337 395.549L91.7628 394.684C90.5051 393.565 89.1281 392.587 87.6566 391.768C84.3935 389.953 80.721 389 76.9868 389Z" fill="black"/>
<g filter="url(#filter0_f)">
<path d="M68.9007 412L64.9065 416.5C67.8363 416.5 70.7005 417.368 73.1372 418.995L73.8935 419.5L68.9007 412Z" fill="#E8E7E7"/>
</g>
<g filter="url(#filter1_f)">
<path d="M64.9065 416.571V416.571C67.7747 416.243 70.6514 417.111 72.8597 418.97L72.895 419" stroke="black" stroke-width="0.4"/>
</g>
<path d="M171.753 339.5L159.77 367.5L155.568 376.616C154.377 379.202 153.373 381.87 152.565 384.601V384.601C150.724 390.825 149.918 397.309 150.181 403.794L151.282 431L153.786 445.466C156.333 460.18 164.775 473.218 177.16 481.561V481.561C182.5 485.159 188.433 487.787 194.686 489.325L203.43 491.476C210.227 493.148 217.249 493.711 224.225 493.145V493.145C241.158 491.77 256.881 483.823 268.03 471.004L268.405 470.573C274.468 463.601 279.011 455.441 281.742 446.614L283.493 440.954C286.844 430.125 287.696 418.679 285.987 407.474L285.077 401.508C283.764 392.902 280.962 384.59 276.798 376.945L274.105 372L260.125 342.5" stroke="black" stroke-width="0.3"/>
<path d="M171.753 194H179.741L186.232 262L187.846 299.185C188.433 312.701 187.799 326.242 185.954 339.644L182.737 363L179.519 397.636C179.002 403.205 178.892 408.804 179.189 414.388L180.74 443.5L186.232 485.5L183.484 480.913C178.364 472.368 174.75 463.007 172.799 453.238L171.172 445.091C169.235 435.395 168.403 425.511 168.69 415.627L169.755 379L165.984 394.106C164.839 398.694 164.088 403.371 163.739 408.086L162.709 422.008C162.415 425.995 162.472 430 162.881 433.977L165.761 462L161.714 447.949C159.436 440.04 158.511 431.802 158.98 423.585L159.987 405.939C160.175 402.652 160.624 399.384 161.331 396.168L165.761 376L177.245 309L178.742 268L175.747 230.5L171.753 194Z" fill="#503C4D"/>
<path d="M248.642 342V344.5H195.219L194.94 344.472C191.807 344.158 188.719 343.497 185.732 342.5L248.642 342Z" fill="#FF9CA4"/>
<path d="M208.699 209L210.197 343.5" stroke="black" stroke-width="0.5"/>
<path d="M226.174 203.5L227.672 286.5V331.533C227.672 333.477 228.179 335.388 229.142 337.077L230.265 339.045C231.093 340.495 230.848 342.319 229.669 343.5V343.5" stroke="black" stroke-width="0.5"/>
<path d="M232.165 281V329.606C232.165 331.834 232.718 334.027 233.773 335.989V335.989C234.987 338.248 235.316 340.879 234.695 343.367L234.662 343.5" stroke="black" stroke-width="0.5"/>
<path d="M113.337 494L132.309 440" stroke="black" stroke-width="0.3"/>
<path d="M172.751 514L172.751 502.5" stroke="black" stroke-width="0.3"/>
<path d="M258.627 516.5V504.5" stroke="black" stroke-width="0.3"/>
<path d="M317.542 495L295.574 459" stroke="black" stroke-width="0.3"/>
<path d="M108.344 478L138.8 419.5L138.53 420.222C137.718 422.39 137.302 424.685 137.302 427L117.331 482L108.344 478Z" fill="#FF9CA4"/>
<path d="M162.766 506.5L166.76 494L166.875 494.694C167.424 497.989 169.651 500.758 172.751 502V509.5L171.253 508.5L162.766 506.5Z" fill="#FF9CA4"/>
<path d="M185.44 918.259C183.964 920.257 180.338 918.663 176.745 916C173.152 913.337 170.952 910.615 172.428 908.617C173.904 906.62 176.148 908.337 179.741 911C183.334 913.663 186.916 916.262 185.44 918.259Z" fill="#837C88"/>
<path d="M279.098 887C277.272 889.426 274.339 890.556 272.797 889.392C271.255 888.229 274.277 886.426 276.102 884C277.928 881.574 277.866 879.444 279.407 880.607C280.949 881.771 280.923 884.574 279.098 887Z" fill="#837C88"/>
<g filter="url(#filter2_f)">
<path d="M192.223 861.5C192.223 865.918 190.725 866.308 183.735 869C177.245 871.5 174.249 871.418 174.249 867C174.249 862.582 177.669 854 183.735 854C189.802 854 192.223 857.082 192.223 861.5Z" fill="#BECAD8"/>
</g>
<g filter="url(#filter3_f)">
<path d="M278.099 842C278.099 845.038 271.095 846.5 268.613 846.5C266.131 846.5 259.626 845.538 259.626 842.5C259.626 839.462 266.131 832.5 268.613 832.5C271.095 832.5 278.099 838.962 278.099 842Z" fill="#BECAD8"/>
</g>
<path d="M155.276 561.5L165.911 562.289C176.731 563.092 187.61 562.228 198.169 559.729L209.698 557V560.5L200.515 562.884C188.744 565.94 176.548 567.023 164.423 566.089L156.774 565.5L155.276 561.5Z" fill="black"/>
<path d="M221.681 556L225.883 556.959C240.441 560.282 255.535 560.492 270.177 557.575L280.596 555.5L280.096 559L273.923 560.633C256.94 565.126 239.052 564.907 222.18 560V560L221.681 556Z" fill="black"/>
<g filter="url(#filter4_f)">
<path d="M202.708 631C202.708 636.523 190.025 656.5 184.235 656.5C178.444 656.5 179.242 648.023 179.242 642.5C179.242 636.977 177.445 636.5 183.236 636.5C189.027 636.5 198.214 638 202.708 631Z" fill="#BECAD8"/>
</g>
<g filter="url(#filter5_f)">
<path d="M256.388 634.5C257.886 628.745 268.855 658.5 254.134 659C244.647 658 240.695 651.988 238.656 644.5C237.158 639 237.658 637.5 235.161 633C236.548 635.5 247.144 649.5 256.388 634.5Z" fill="#BECAD8"/>
</g>
<path d="M121.325 471L96.3611 456L98.3582 452.5L122.823 467L121.325 471Z" fill="black"/>
<path d="M116.832 484.5L168.258 498L168.045 497.645C167.204 496.241 166.76 494.636 166.76 493L118.33 480L116.832 484.5Z" fill="black"/>
<path d="M270.61 508L270.115 493.117C270.112 493.041 270.084 492.969 270.035 492.911L268.43 491.037C267.743 490.233 266.498 490.242 265.821 491.055C265.124 491.892 265.124 493.108 265.821 493.945L265.971 494.125C266.687 494.985 266.931 496.144 266.624 497.22L266.55 497.482C266.268 498.469 265.682 499.342 264.876 499.976L259.127 504.5V510L270.61 508Z" fill="#FF9CA4"/>
<path d="M291.873 487.955L308.555 480L310.552 484L287.586 494.5L260.624 503L264.617 500.001C265.875 499.056 266.616 497.574 266.616 496L283.018 491.307C286.058 490.437 289.02 489.316 291.873 487.955Z" fill="black"/>
<path d="M336.515 453L338.512 456L324.033 467.5L307.057 477.5L305.06 474L313.24 469.663C319.089 466.563 324.604 462.871 329.701 458.647L336.515 453Z" fill="black"/>
<path d="M306.021 450.527L292.921 433.371C290.756 430.536 289.583 427.067 289.583 423.5L312.05 418.5L329.026 410.5L332.521 454.5L345.038 480.002C346.329 482.632 347 485.523 347 488.453C347 490.458 346.544 492.437 345.666 494.239L339.513 506.87C337.911 510.159 335.086 512.69 331.642 513.922L329.43 514.712C325.57 516.093 321.257 514.978 318.551 511.898L316.137 509.15C313.901 506.606 314.213 502.716 316.827 500.561L319.246 498.566L317.232 493.021C315.786 489.037 315.046 484.832 315.046 480.595V471.011C315.046 468.443 314.027 465.979 312.212 464.162C311.131 463.079 310.402 461.695 310.12 460.192L309.975 459.414C309.37 456.183 308.016 453.139 306.021 450.527Z" fill="white"/>
<path d="M151.781 385.5L145.892 387C145.892 387.95 145.611 388.878 145.085 389.669L143.895 391.456L150.783 389L151.781 385.5Z" fill="#BECAD8"/>
<path d="M165.761 288.5L141.296 261L161.268 274C163.455 275.252 164.883 277.502 165.083 280.014L165.761 288.5Z" fill="#E8E7E7"/>
<path d="M269.753 285.037L266.116 290.5L267.244 279.964C267.486 277.695 268.324 275.53 269.673 273.689C271.877 270.679 275.156 268.635 278.828 267.981L295.574 265L297.571 270.5L288.48 273.301C285.89 274.099 283.363 275.088 280.918 276.258L278.563 277.386C274.992 279.097 271.948 281.74 269.753 285.037Z" fill="#E8E7E7"/>
<path d="M280.596 180C280.596 184.509 278.807 188.833 275.624 192.021C272.44 195.209 268.122 197 263.62 197C259.118 197 254.8 195.209 251.617 192.021C248.433 188.833 246.645 184.509 246.645 180L252.27 183.38C253.497 184.118 254.872 184.574 256.297 184.717L257.823 184.869C258.679 184.955 259.501 185.25 260.216 185.727V185.727C262.332 187.14 265.029 187.359 267.345 186.304L268.511 185.774C268.911 185.592 269.328 185.452 269.757 185.357L270.402 185.213C272.521 184.741 274.54 183.899 276.365 182.724L280.596 180Z" fill="#8BB0CB"/>
<path d="M189.727 179C189.727 183.509 187.938 187.833 184.755 191.021C181.571 194.209 177.253 196 172.751 196C168.249 196 163.931 194.209 160.748 191.021C157.564 187.833 155.776 183.509 155.776 179L160.647 181.927C162.372 182.964 164.3 183.615 166.3 183.838L166.851 183.899C167.455 183.966 168.056 184.09 168.638 184.264V184.264C171.304 185.065 174.173 185.073 176.839 184.272V184.272C177.441 184.091 178.059 183.968 178.684 183.906L178.867 183.888C181.411 183.633 183.857 182.779 186.007 181.395L189.727 179Z" fill="#8BB0CB"/>
<path d="M268.613 149.5V140L264.582 143.14C261.301 145.696 258.465 148.777 256.192 152.26C252.861 157.361 248.481 161.694 243.343 164.968L234.662 170.5L240.03 173.071C243.485 174.726 247.63 173.451 249.558 170.141C251.808 166.278 255.755 163.708 260.199 163.214L262.239 162.987C264.919 162.689 267.198 160.895 268.119 158.36C268.446 157.46 268.613 156.51 268.613 155.553V149.5Z" fill="#2F2531"/>
<path d="M317.635 452.364L312.55 452L315.265 453.046C317.751 454.004 320.418 454.401 323.075 454.211L325.181 454.061C325.737 454.021 326.274 453.837 326.738 453.527L327.276 453.168C327.441 453.058 327.575 452.907 327.663 452.729C327.864 452.326 327.701 451.837 327.299 451.635L326.381 451.176C325.52 450.744 324.519 450.687 323.614 451.016L321.334 451.847C320.151 452.277 318.891 452.454 317.635 452.364Z" fill="#E8E7E7"/>
<path d="M164.263 144.687V140L166.843 143.014C167.118 143.335 167.453 143.597 167.831 143.786C170.084 144.915 172.058 146.53 173.61 148.516L180.24 157C183.541 160.966 187.542 164.292 192.045 166.812L202.209 172.5L198.145 174.399C195.981 175.41 193.474 175.376 191.338 174.307L190.943 174.109C189.51 173.392 188.369 172.202 187.713 170.741L187.437 170.128C185.437 165.675 181.342 162.517 176.527 161.714L174.534 161.381C173.035 161.131 171.498 161.252 170.057 161.733L167.321 162.646C166.712 162.849 166.048 162.574 165.761 162L165.225 158.245C164.585 153.754 164.263 149.223 164.263 144.687Z" fill="#2F2531"/>
<path d="M289.601 140.645L289.025 139.08C288.63 138.007 287.035 138.33 287.088 139.472L287.319 144.458C286.969 148.231 286.058 151.97 284.624 155.476C284.392 156.044 285.103 156.522 285.541 156.094L286.214 155.435C287.297 154.376 288.186 153.133 288.839 151.765L289.113 151.191C290.69 147.885 290.866 144.083 289.601 140.645Z" fill="#FE848D"/>
<path d="M148.786 410C147.787 411 145.385 412.5 143.887 413.5C143.887 413.5 143.293 410 141.796 409.5C141.796 408.395 144.135 407 145.79 407C147.444 407 148.786 408.895 148.786 410Z" fill="#BECAD8"/>
<path d="M140.298 436.5L150.283 429L151.282 433.5L142.662 439.809L140.298 436.5Z" fill="#BECAD8"/>
<path d="M141.296 460.5L156.774 458.5L144.791 468V468C144.466 465.391 143.381 462.935 141.671 460.938L141.296 460.5Z" fill="#BECAD8"/>
<path d="M193.721 506.5L193.932 506.394C195.107 505.806 196.402 505.5 197.715 505.5L203.706 492L193.721 489.5V506.5Z" fill="#BECAD8"/>
<path d="M275.603 462L288.085 473.5L286.817 471.278C286.339 470.44 286.088 469.493 286.088 468.529C286.088 466.622 286.985 464.826 288.51 463.681L290.082 462.5L281.095 451L275.603 462Z" fill="#BECAD8"/>
<path d="M272.055 357.917L273.606 354.5L275.339 357.103C276.162 358.34 276.601 359.793 276.601 361.279V361.973C276.601 362.322 276.545 362.669 276.435 363L275.884 364.655C275.702 365.203 275.702 365.797 275.884 366.345C276.021 366.757 276.345 367.081 276.757 367.219L278.243 367.715C278.8 367.901 279.289 368.249 279.647 368.715L281.703 371.392C283.286 373.453 284.554 375.737 285.465 378.17L288.584 386.5L291.761 394.454C292.305 395.815 292.71 397.226 292.972 398.667C293.373 400.877 293.444 403.134 293.182 405.364L293.013 406.8C292.733 409.184 293.332 411.59 294.697 413.565L297.072 417L293.078 420.5L291.349 416.389C289.842 412.805 288.7 409.08 287.939 405.268L286.502 398.075C286.228 396.703 286.206 395.293 286.435 393.913C286.852 391.407 286.258 388.839 284.783 386.771L282.094 383L279.535 378.303C279.287 377.848 279.428 377.28 279.858 376.993L281.154 376.127C281.537 375.872 281.459 375.288 281.022 375.142C278.804 374.402 276.897 372.943 275.601 370.997L275.256 370.478C274.161 368.834 273.307 367.043 272.719 365.158L271.791 362.184C271.352 360.777 271.446 359.258 272.055 357.917Z" fill="#BECAD8"/>
<path d="M224.836 14.6947L231.167 16L241.652 19.5L251.138 24L241.652 17.5L234.548 14.2665C231.965 13.0907 229.292 12.1243 226.554 11.3766L225.271 11.026C218.016 9.04465 210.364 9.03588 203.105 11.0007L202.266 11.2278C197.909 12.407 193.662 13.9609 189.572 15.872C183.729 18.603 178.408 22.3349 173.85 26.8992L172.252 28.5L181.612 22.3485C185.985 19.4748 190.856 17.4435 195.974 16.3591L203.559 14.7524C210.571 13.2669 217.815 13.2472 224.836 14.6947Z" fill="#BECAD8"/>
<path d="M306.558 433L294.575 435L296.073 437L306.558 435L310.119 434.321C314.722 433.443 319.219 432.078 323.534 430.25L330.024 426.5V424L323.284 427.5C318.813 429.822 314.037 431.502 309.097 432.492L306.558 433Z" fill="black"/>
<path d="M312.55 452L316.683 453.552C319.194 454.495 321.931 454.651 324.532 454V454" stroke="black" stroke-width="0.4"/>
<path d="M191.724 487.5V487.5C191.724 479.633 193.755 471.9 197.622 465.05L198.214 464" stroke="black" stroke-width="0.3"/>
<path d="M143.293 60L146.788 80L140.298 74L128.814 83L143.293 60Z" fill="#E8E7E7"/>
<path d="M141.635 67.0073L127.005 76.574L125.846 79.574L142.153 68.9388L147.574 70.8108L141.635 67.0073Z" fill="black"/>
<path d="M287.586 54.5L302.065 77.5L290.082 71.5L286.088 78.5L287.586 54.5Z" fill="#E8E7E7"/>
<path d="M288.024 61.6837L304.062 69.6837L305.061 72.1837L287.586 63.6836L282.593 66.1836L288.024 61.6837Z" fill="black"/>
<path d="M192 83V84L176.5 87.5L167 90.5L168.284 89.8916C173.74 87.3075 179.499 85.4196 185.425 84.2726L192 83Z" fill="#7E655C"/>
<path d="M216 138V140" stroke="#FACDC3" stroke-width="0.2"/>
<path d="M176.651 123.226L174.5 120L172.5 115.5L173.5 112L179.5 108.5L184 107.5L181.5 122.5L186.5 129H185.132C184.382 129 183.637 128.879 182.926 128.642C181.66 128.22 180.508 127.508 179.564 126.564L178.583 125.583C177.863 124.863 177.216 124.073 176.651 123.226Z" fill="white"/>
<path d="M186.89 129H194.5C195.484 128.672 196.37 128.102 197.076 127.341L198.543 125.761C200.932 123.189 201.509 119.419 200 116.25L197.5 111L197 110L193.5 108.5L185.5 107C182.737 107.921 180.722 110.31 180.279 113.188L180.176 113.857C180.059 114.618 180 115.387 180 116.156V118.357C180 120.107 180.282 121.847 180.836 123.508C181.273 124.818 182.008 126.008 182.985 126.985L183.663 127.663C184.519 128.519 185.68 129 186.89 129Z" fill="#40244A"/>
<path d="M198.268 127.232L198.971 126.529C200.285 125.215 201.116 123.495 201.329 121.649L201.75 118L201.868 116.82C201.956 115.943 201.945 115.058 201.835 114.183L201.528 111.722C201.511 111.586 201.573 111.453 201.689 111.379C201.712 111.364 201.707 111.328 201.68 111.32L197 110L198 113.5L198.182 114.411C198.394 115.468 198.5 116.543 198.5 117.621V120.298C198.5 122.371 197.795 124.382 196.5 126L194 129C195.601 129 197.136 128.364 198.268 127.232Z" fill="white"/>
<path d="M198.045 109.127L201.571 111.243C201.837 111.402 202 111.69 202 112C201.671 111.671 201.27 111.423 200.829 111.276L197.506 110.169C197.169 110.056 196.824 109.971 196.474 109.912L189.626 108.771C188.544 108.591 187.449 108.5 186.351 108.5H182.554C181.213 108.5 179.9 108.886 178.772 109.611L174.586 112.302C173.909 112.737 173.5 113.487 173.5 114.292C173.5 114.43 173.512 114.569 173.537 114.705L174.5 120L170.082 115.181C169.485 114.529 169.531 113.517 170.185 112.923L172.669 110.664C173.884 109.56 175.245 108.628 176.713 107.894C179.203 106.648 181.95 106 184.734 106H185.255C187.076 106 188.89 106.247 190.645 106.735L195.825 108.174C196.605 108.39 197.352 108.711 198.045 109.127Z" fill="black"/>
<circle cx="183.5" cy="112.5" r="2" fill="white"/>
<circle cx="185" cy="116" r="0.5" fill="white"/>
<path d="M197.654 119.923L198.5 119.5V120.296C198.5 121.745 198.162 123.175 197.514 124.472C197.173 125.155 196.749 125.793 196.252 126.373L194 129H190.5H187.22C186.418 129 185.626 128.813 184.909 128.454C184.309 128.154 183.773 127.74 183.331 127.235L182.652 126.459C181.251 124.858 180.374 122.867 180.139 120.752L180 119.5L183.349 120.718C184.777 121.237 186.286 121.579 187.798 121.73C189.573 121.907 191.389 121.822 193.139 121.472C194.706 121.159 196.224 120.638 197.654 119.923Z" fill="#71557B"/>
<path d="M193.4 118C193.4 119.503 193.012 120.858 192.391 121.835C191.768 122.814 190.92 123.4 190 123.4C189.08 123.4 188.232 122.814 187.609 121.835C186.988 120.858 186.6 119.503 186.6 118C186.6 116.497 186.988 115.142 187.609 114.165C188.232 113.186 189.08 112.6 190 112.6C190.92 112.6 191.768 113.186 192.391 114.165C193.012 115.142 193.4 116.497 193.4 118Z" stroke="#7B5389" stroke-width="0.2"/>
<path d="M186.913 127.969L186.5 129H194L193.392 127.479C193.138 126.844 192.682 126.309 192.096 125.958L192.02 125.912C191.073 125.344 189.902 125.299 188.915 125.793C188.003 126.248 187.291 127.023 186.913 127.969Z" fill="#8F6E9A"/>
<circle cx="195" cy="123" r="0.5" fill="white"/>
<path d="M254.849 123.226L257 120L259 115.5L258 112L252 108.5L247.5 107.5L250 122.5L245 129H246.368C247.118 129 247.863 128.879 248.574 128.642C249.84 128.22 250.992 127.508 251.936 126.564L252.917 125.583C253.637 124.863 254.284 124.073 254.849 123.226Z" fill="white"/>
<path d="M244.61 129H237C236.016 128.672 235.13 128.102 234.424 127.341L232.957 125.761C230.568 123.189 229.991 119.419 231.5 116.25L234 111L234.5 110L238 108.5L246 107C248.763 107.921 250.778 110.31 251.221 113.188L251.324 113.857C251.441 114.618 251.5 115.387 251.5 116.156V118.357C251.5 120.107 251.218 121.847 250.664 123.508C250.227 124.818 249.492 126.008 248.515 126.985L247.837 127.663C246.981 128.519 245.82 129 244.61 129Z" fill="#40244A"/>
<path d="M233.232 127.232L232.529 126.529C231.215 125.215 230.384 123.495 230.171 121.649L229.75 118L229.632 116.82C229.544 115.943 229.555 115.058 229.665 114.183L229.972 111.722C229.989 111.586 229.927 111.453 229.811 111.379C229.788 111.364 229.793 111.328 229.82 111.32L234.5 110L233.5 113.5L233.318 114.411C233.106 115.468 233 116.543 233 117.621V120.298C233 122.371 233.705 124.382 235 126L237.5 129C235.899 129 234.364 128.364 233.232 127.232Z" fill="white"/>
<path d="M233.455 109.127L229.929 111.243C229.663 111.402 229.5 111.69 229.5 112C229.829 111.671 230.23 111.423 230.671 111.276L233.994 110.169C234.331 110.056 234.676 109.971 235.026 109.912L241.874 108.771C242.956 108.591 244.051 108.5 245.149 108.5H248.946C250.287 108.5 251.6 108.886 252.728 109.611L256.914 112.302C257.591 112.737 258 113.487 258 114.292C258 114.43 257.988 114.569 257.963 114.705L257 120L261.418 115.181C262.015 114.529 261.969 113.517 261.315 112.923L258.831 110.664C257.616 109.56 256.255 108.628 254.787 107.894C252.297 106.648 249.55 106 246.766 106H246.245C244.424 106 242.61 106.247 240.855 106.735L235.675 108.174C234.895 108.39 234.148 108.711 233.455 109.127Z" fill="black"/>
<circle r="2" transform="matrix(-1 0 0 1 248 112.5)" fill="white"/>
<circle r="0.5" transform="matrix(-1 0 0 1 246.5 116)" fill="white"/>
<path d="M233.846 119.923L233 119.5V120.296C233 121.745 233.338 123.175 233.986 124.472C234.327 125.155 234.751 125.793 235.248 126.373L237.5 129H241H244.28C245.082 129 245.874 128.813 246.591 128.454C247.191 128.154 247.727 127.74 248.169 127.235L248.848 126.459C250.249 124.858 251.126 122.867 251.361 120.752L251.5 119.5L248.151 120.718C246.723 121.237 245.214 121.579 243.702 121.73C241.927 121.907 240.111 121.822 238.361 121.472C236.794 121.159 235.276 120.638 233.846 119.923Z" fill="#71557B"/>
<path d="M238.1 118C238.1 119.503 238.488 120.858 239.109 121.835C239.732 122.814 240.58 123.4 241.5 123.4C242.42 123.4 243.268 122.814 243.891 121.835C244.512 120.858 244.9 119.503 244.9 118C244.9 116.497 244.512 115.142 243.891 114.165C243.268 113.186 242.42 112.6 241.5 112.6C240.58 112.6 239.732 113.186 239.109 114.165C238.488 115.142 238.1 116.497 238.1 118Z" stroke="#7B5389" stroke-width="0.2"/>
<path d="M244.587 127.969L245 129H237.5L238.108 127.479C238.362 126.844 238.818 126.309 239.404 125.958L239.48 125.912C240.427 125.344 241.598 125.299 242.585 125.793C243.497 126.248 244.209 127.023 244.587 127.969Z" fill="#8F6E9A"/>
<circle r="0.5" transform="matrix(-1 0 0 1 236.5 123)" fill="white"/>
<path d="M236.41 102.197L234.474 102.842C234.191 102.936 234 103.201 234 103.5C234.332 103.5 234.663 103.459 234.985 103.379L240.5 102C243.156 101.668 245.844 101.668 248.5 102L249.614 102.159C251.194 102.385 252.728 102.864 254.156 103.578L254.553 103.776C254.847 103.923 255.171 104 255.5 104C255.5 103.697 255.319 103.423 255.04 103.303L253.094 102.469C252.367 102.157 251.607 101.929 250.829 101.787L246.5 101H245.256C243.422 101 241.593 101.165 239.789 101.493L237.612 101.889C237.205 101.963 236.803 102.066 236.41 102.197Z" fill="#FFD3D7"/>
<path d="M173 105L175.665 104.385C182.496 102.809 189.56 102.509 196.5 103.5L199.5 104L199.188 103.844C197.408 102.954 195.495 102.356 193.524 102.075C188.569 101.367 183.519 101.763 178.735 103.235L173 105Z" fill="#FFD3D7"/>
<path d="M244 80.5L239.114 80.9072C238.422 80.9648 237.81 81.379 237.5 82H238.5L240.971 81.7754C242.982 81.5925 245.008 81.668 247 82L254 84L255.5 84.5C255.179 83.8572 254.626 83.3598 253.953 83.1074L251 82L249.809 81.5534C247.951 80.8568 245.984 80.5 244 80.5Z" fill="#7E655C"/>
<circle cx="216.5" cy="138.5" r="1.5" fill="#FACDC3" fill-opacity="0.15"/>
<path d="M216.384 156.808L216.564 156.718C216.824 156.588 217.139 156.639 217.345 156.845C217.771 157.271 218.5 156.969 218.5 156.366V155.213C218.5 154.776 218.253 154.376 217.862 154.181L217.339 153.919C216.82 153.66 216.202 153.699 215.72 154.02L215.62 154.086C215.233 154.345 215 154.78 215 155.246V155.953C215 156.664 215.748 157.126 216.384 156.808Z" fill="#FFB0B6"/>
<path d="M160.5 70.5C160.5 75.1944 162.59 75.5 159 75.5C155.41 75.5 154 74.1944 154 69.5C154 64.8056 156.91 61 160.5 61C164.09 61 160.5 65.8056 160.5 70.5Z" fill="#A88F86"/>
<path d="M179.5 71.5C179.5 76.1944 181.59 76.5 178 76.5C174.41 76.5 174.5 77.6944 174.5 73C174.5 68.3056 174.41 65.5 178 65.5C181.59 65.5 179.5 66.8056 179.5 71.5Z" fill="#A88F86"/>
<path d="M195 71.5C195 76.1944 197.09 76.5 193.5 76.5C189.91 76.5 191.5 78.1944 191.5 73.5C191.5 68.8056 189.91 66.4193 193.5 66.4193C195 69.5 195 66.8056 195 71.5Z" fill="#A88F86"/>
<path d="M218 71C218 75.6944 219.59 77.5 216 77.5C212.41 77.5 212.5 78.6944 212.5 74C212.5 69.3056 211.41 66.4193 215 66.4193C216.5 69.5 218 66.3056 218 71Z" fill="#A88F86"/>
<path d="M255.5 71C255.5 75.6944 257.59 77.5 254 77.5C250.41 77.5 249.5 78.6944 249.5 74C249.5 69.3056 250.91 65.5 254.5 65.5C256 68.5807 255.5 66.3056 255.5 71Z" fill="#A88F86"/>
<path d="M277 71.5C277 76.1944 280.59 80.5 277 80.5C273.41 80.5 270 80.6944 270 76C270 71.3056 270.91 65 274.5 65C276 68.0807 277 66.8056 277 71.5Z" fill="#A88F86"/>
<defs>
<filter id="filter0_f" x="63.9065" y="411" width="10.9871" height="9.5" filterUnits="userSpaceOnUse" color-interpolation-filters="sRGB">
<feFlood flood-opacity="0" result="BackgroundImageFix"/>
<feBlend mode="normal" in="SourceGraphic" in2="BackgroundImageFix" result="shape"/>
<feGaussianBlur stdDeviation="0.5" result="effect1_foregroundBlur"/>
</filter>
<filter id="filter1_f" x="64.5838" y="416.003" width="8.74005" height="3.44967" filterUnits="userSpaceOnUse" color-interpolation-filters="sRGB">
<feFlood flood-opacity="0" result="BackgroundImageFix"/>
<feBlend mode="normal" in="SourceGraphic" in2="BackgroundImageFix" result="shape"/>
<feGaussianBlur stdDeviation="0.15" result="effect1_foregroundBlur"/>
</filter>
<filter id="filter2_f" x="173.249" y="853" width="19.9741" height="18.6538" filterUnits="userSpaceOnUse" color-interpolation-filters="sRGB">
<feFlood flood-opacity="0" result="BackgroundImageFix"/>
<feBlend mode="normal" in="SourceGraphic" in2="BackgroundImageFix" result="shape"/>
<feGaussianBlur stdDeviation="0.5" result="effect1_foregroundBlur"/>
</filter>
<filter id="filter3_f" x="258.626" y="831.5" width="20.4734" height="16" filterUnits="userSpaceOnUse" color-interpolation-filters="sRGB">
<feFlood flood-opacity="0" result="BackgroundImageFix"/>
<feBlend mode="normal" in="SourceGraphic" in2="BackgroundImageFix" result="shape"/>
<feGaussianBlur stdDeviation="0.5" result="effect1_foregroundBlur"/>
</filter>
<filter id="filter4_f" x="177.978" y="630" width="25.7296" height="27.5" filterUnits="userSpaceOnUse" color-interpolation-filters="sRGB">
<feFlood flood-opacity="0" result="BackgroundImageFix"/>
<feBlend mode="normal" in="SourceGraphic" in2="BackgroundImageFix" result="shape"/>
<feGaussianBlur stdDeviation="0.5" result="effect1_foregroundBlur"/>
</filter>
<filter id="filter5_f" x="234.161" y="632" width="28.5598" height="28" filterUnits="userSpaceOnUse" color-interpolation-filters="sRGB">
<feFlood flood-opacity="0" result="BackgroundImageFix"/>
<feBlend mode="normal" in="SourceGraphic" in2="BackgroundImageFix" result="shape"/>
<feGaussianBlur stdDeviation="0.5" result="effect1_foregroundBlur"/>
</filter>
</defs>
</svg>
